<?xml version="1.0" standalone="no"?>
<!DOCTYPE svg PUBLIC "-//W3C//DTD SVG 20010904//EN"
 "http://www.w3.org/TR/2001/REC-SVG-20010904/DTD/svg10.dtd">
<svg version="1.0" xmlns="http://www.w3.org/2000/svg"
 width="550.000000pt" height="181.000000pt" viewBox="0 0 550.000000 181.000000"
 preserveAspectRatio="xMidYMid meet">

<g transform="translate(0.000000,181.000000) scale(0.100000,-0.100000)"
fill="#000000" stroke="none">
<path d="M821 1775 c-121 -44 -225 -107 -364 -221 -242 -197 -378 -385 -433
-599 -23 -93 -24 -274 0 -370 21 -90 92 -234 150 -307 144 -181 432 -300 655
-269 176 24 317 94 441 220 133 135 189 249 213 433 20 157 -26 373 -109 510
-47 77 -128 165 -175 189 -49 25 -110 25 -132 1 -32 -35 -21 -83 47 -214 96
-185 114 -266 82 -386 -20 -73 -56 -131 -119 -188 -97 -89 -194 -120 -316
-103 -139 20 -253 105 -318 236 -26 54 -28 67 -28 173 0 102 3 120 24 160 64
120 227 294 321 344 111 58 220 136 249 177 52 71 53 154 3 210 -40 45 -79 45
-191 4z"/>
<path d="M2137 1230 c-108 -28 -174 -93 -192 -193 l-7 -37 61 0 c57 0 61 1 61
24 0 27 31 71 63 88 35 19 108 27 162 17 69 -12 107 -54 103 -112 -2 -34 -9
-45 -36 -63 -18 -12 -56 -25 -85 -29 -174 -23 -278 -60 -317 -114 -30 -44 -45
-126 -31 -176 30 -108 95 -150 231 -150 96 1 151 20 213 75 33 29 37 30 37 12
0 -73 75 -112 154 -82 23 8 26 15 26 55 0 43 -1 45 -29 45 -17 0 -33 6 -38 13
-4 6 -10 127 -13 267 -5 245 -6 256 -28 287 -36 51 -100 75 -206 79 -50 2
-108 -1 -129 -6z m251 -460 c-4 -80 -36 -131 -102 -161 -80 -36 -209 -20 -236
30 -19 36 -12 97 15 130 30 35 58 45 180 65 50 8 101 19 115 24 31 12 33 4 28
-88z"/>
<path d="M2815 1224 c-104 -33 -155 -94 -155 -187 0 -128 49 -163 325 -233 51
-13 79 -26 103 -50 36 -36 40 -60 16 -105 -21 -41 -68 -59 -156 -59 -118 1
-163 29 -192 123 -4 13 -17 17 -62 17 l-57 0 7 -41 c14 -87 58 -143 141 -181
42 -18 68 -22 155 -23 99 0 109 2 172 33 69 34 97 62 116 121 27 78 8 157 -49
205 -42 35 -56 41 -211 81 -137 36 -175 55 -184 90 -15 61 22 103 101 115 98
15 171 -17 201 -87 14 -32 17 -33 70 -33 l56 0 -7 38 c-15 85 -70 151 -142
172 -66 20 -193 22 -248 4z"/>
<path d="M3610 1221 c-33 -12 -67 -33 -87 -55 l-33 -36 0 45 0 45 -60 0 -60 0
2 -452 3 -453 55 0 55 0 5 140 c5 136 5 139 22 113 10 -14 43 -39 75 -55 49
-24 70 -28 139 -28 70 0 89 4 140 30 39 21 71 46 96 80 59 77 73 130 73 270 0
114 -2 123 -31 186 -58 122 -141 179 -269 186 -51 3 -85 -2 -125 -16z m193
-113 c77 -38 124 -155 114 -282 -9 -111 -54 -193 -124 -222 -39 -17 -130 -18
-170 -3 -97 36 -155 178 -132 320 12 76 37 127 84 167 33 29 45 35 100 45 33
6 88 -5 128 -25z"/>
<path d="M4385 1227 c-66 -22 -99 -43 -144 -92 -79 -86 -112 -207 -92 -341 21
-141 78 -232 179 -281 50 -24 69 -28 147 -28 111 0 176 26 235 92 32 37 70
115 70 145 0 4 -24 8 -54 8 l-54 0 -23 -47 c-35 -69 -66 -87 -153 -91 -58 -3
-81 0 -112 16 -67 34 -106 90 -118 170 l-6 42 266 0 267 0 -5 78 c-13 202
-125 329 -296 338 -39 2 -84 -2 -107 -9z m177 -118 c42 -21 80 -68 97 -118 21
-64 30 -61 -189 -61 l-200 0 0 26 c0 40 49 122 88 146 65 40 133 42 204 7z"/>
<path d="M5180 1231 c-52 -17 -89 -42 -124 -83 l-36 -42 0 57 0 57 -55 0 -55
0 0 -360 0 -360 60 0 60 0 0 229 c0 254 7 291 62 348 33 34 71 50 123 54 65 4
86 -2 123 -35 l37 -34 3 -281 3 -281 59 0 60 0 0 260 c0 147 -5 281 -11 309
-23 108 -92 162 -213 167 -39 2 -82 0 -96 -5z"/>
<path d="M735 1058 c-157 -55 -184 -275 -47 -372 32 -23 56 -31 101 -34 81 -6
149 30 200 107 32 49 36 61 36 121 0 56 -4 73 -28 108 -37 57 -90 82 -169 81
-35 0 -76 -5 -93 -11z"/>
<path d="M1912 78 c3 -74 20 -100 26 -40 3 31 5 32 48 32 42 0 44 -1 44 -29 0
-17 5 -33 10 -36 6 -4 10 22 10 69 0 44 -4 76 -10 76 -5 0 -10 -13 -10 -30 0
-29 -2 -30 -45 -30 -43 0 -45 1 -45 30 0 20 -5 30 -15 30 -13 0 -15 -13 -13
-72z"/>
<path d="M2454 142 c-16 -11 -34 -48 -34 -72 0 -32 44 -70 80 -70 66 0 105 85
60 130 -20 20 -83 28 -106 12z m78 -24 c32 -25 27 -75 -8 -89 -38 -14 -74 11
-74 51 0 43 47 65 82 38z"/>
<path d="M2950 78 l0 -73 57 1 c73 2 86 24 14 24 l-51 0 0 60 c0 33 -4 60 -10
60 -6 0 -10 -31 -10 -72z"/>
<path d="M3430 82 c0 -38 2 -71 5 -73 10 -11 117 8 126 22 5 8 9 31 9 51 0 48
-28 68 -92 68 l-48 0 0 -68z m109 23 c11 -11 13 -21 5 -42 -8 -23 -16 -29 -47
-31 l-37 -3 0 52 0 52 32 -7 c18 -4 39 -13 47 -21z"/>
<path d="M3942 78 c2 -40 8 -73 13 -73 6 0 11 33 13 73 2 60 0 72 -13 72 -13
0 -15 -12 -13 -72z"/>
<path d="M4342 78 c3 -82 20 -95 28 -22 l5 46 48 -51 c26 -29 52 -49 57 -46 6
3 10 37 10 76 0 55 -3 69 -15 69 -11 0 -15 -12 -15 -52 l0 -53 -46 53 c-64 73
-76 70 -72 -20z"/>
<path d="M4871 124 c-28 -35 -26 -69 3 -99 20 -20 33 -24 75 -22 l51 2 0 38
c0 36 -1 37 -35 37 -19 0 -35 -4 -35 -10 0 -5 9 -10 21 -10 26 0 20 -20 -8
-31 -33 -12 -65 16 -61 54 4 42 47 60 77 33 27 -24 48 -11 25 15 -27 30 -87
26 -113 -7z"/>
<path d="M5376 134 c-9 -8 -16 -19 -16 -24 0 -18 31 -38 70 -45 23 -4 40 -12
40 -20 0 -20 -42 -26 -68 -9 -33 22 -52 2 -21 -20 31 -21 71 -20 99 2 28 23
20 60 -16 67 -13 3 -35 7 -49 10 -14 3 -25 10 -25 16 0 17 32 23 63 11 36 -13
45 -9 27 13 -16 20 -84 20 -104 -1z"/>
</g>
</svg>
